<?xml version="1.0" encoding="utf-8"?>
<svg xmlns="http://www.w3.org/2000/svg" viewBox="0 0 50 50" fill="#000000"><path d="M 24.964844 1 A 1.0001 1.0001 0 0 0 24.382812 1.2128906 L 4.421875 16.835938 L 1.3828125 19.212891 A 1.0002305 1.0002305 0 1 0 2.6171875 20.787109 L 4 19.705078 L 4 46 A 1.0001 1.0001 0 0 0 5 47 L 45 47 A 1.0001 1.0001 0 0 0 46 46 L 46 19.705078 L 47.382812 20.787109 A 1.0002308 1.0002308 0 1 0 48.617188 19.212891 L 45.632812 16.878906 L 25.617188 1.2128906 A 1.0001 1.0001 0 0 0 24.964844 1 z M 25 3.2695312 L 44 18.138672 L 44 45 L 6 45 L 6 18.138672 L 25 3.2695312 z M 25 16 C 25 16 23.623458 17.91819 23.519531 18.84375 C 22.92735 18.374877 22.234032 18 21.363281 18 C 19.717707 18 18.592587 18.632711 17.720703 19.130859 C 16.848819 19.629008 16.225326 20 15 20 A 1.0001 1.0001 0 0 0 14.960938 20 A 1.0001 1.0001 0 0 0 14.935547 20.001953 A 1.0001 1.0001 0 0 0 14.017578 20.748047 C 13.954573 20.893073 12.677246 23.835107 11.400391 26.771484 C 10.214408 29.499444 9.0820313 32.101565 9.0820312 32.101562 A 1.0001 1.0001 0 0 0 9 32.5 C 9 33.852601 9.7900047 35.024533 10.890625 35.794922 C 11.991245 36.56531 13.430317 37 15 37 C 16.569683 37 18.008755 36.56531 19.109375 35.794922 C 20.209995 35.024533 21 33.852601 21 32.5 A 1.0001 1.0001 0 0 0 20.917969 32.101562 L 16.447266 21.818359 C 17.376792 21.597105 18.116318 21.20999 18.712891 20.869141 C 19.591256 20.367289 20.190856 20 21.363281 20 C 21.647742 20 22.472822 20.505695 23.095703 21.179688 C 23.117944 21.203753 23.128634 21.222036 23.150391 21.246094 A 2 2 0 0 0 23 22 A 2 2 0 0 0 25 24 A 2 2 0 0 0 27 22 A 2 2 0 0 0 26.851562 21.244141 C 26.872669 21.22082 26.882731 21.203023 26.904297 21.179688 C 27.527178 20.505693 28.352258 20 28.636719 20 C 29.809144 20 30.408744 20.367289 31.287109 20.869141 C 31.883682 21.20999 32.623208 21.597105 33.552734 21.818359 C 33.162682 22.716116 32.450376 24.356839 31.400391 26.771484 C 30.214408 29.499444 29.082031 32.101564 29.082031 32.101562 A 1.0001 1.0001 0 0 0 29 32.5 C 29 33.852601 29.790005 35.024533 30.890625 35.794922 C 31.991245 36.56531 33.430317 37 35 37 C 36.569683 37 38.008755 36.56531 39.109375 35.794922 C 40.209995 35.024533 41 33.852601 41 32.5 A 1.0001 1.0001 0 0 0 40.917969 32.101562 L 35.978516 20.738281 A 1.0001 1.0001 0 0 0 35.162109 20.011719 A 1.0001 1.0001 0 0 0 35.070312 20.001953 A 1.0001 1.0001 0 0 0 35.0625 20.001953 A 1.0001 1.0001 0 0 0 35 20 C 33.774674 20 33.151181 19.629008 32.279297 19.130859 C 31.407413 18.632711 30.282293 18 28.636719 18 C 27.765968 18 27.07265 18.374877 26.480469 18.84375 C 26.376542 17.91819 25 16 25 16 z M 15 23.509766 L 18.255859 31 L 11.744141 31 C 12.142178 30.084268 12.471009 29.326185 13.234375 27.570312 C 14.094947 25.59126 14.492092 24.678072 15 23.509766 z M 35 23.509766 L 38.255859 31 L 31.744141 31 C 32.142178 30.084268 32.471009 29.326184 33.234375 27.570312 C 34.094947 25.59126 34.492092 24.678072 35 23.509766 z M 11.113281 33 L 18.886719 33 C 18.757278 33.407362 18.46652 33.80373 17.962891 34.15625 C 17.253761 34.652611 16.191317 35 15 35 C 13.808683 35 12.746239 34.652611 12.037109 34.15625 C 11.53348 33.80373 11.242723 33.407362 11.113281 33 z M 31.113281 33 L 38.886719 33 C 38.757278 33.407362 38.46652 33.80373 37.962891 34.15625 C 37.253761 34.652611 36.191317 35 35 35 C 33.808683 35 32.746239 34.652611 32.037109 34.15625 C 31.53348 33.80373 31.242723 33.407362 31.113281 33 z" fill="#000000"/></svg>
