<?xml version="1.0" encoding="utf-8"?>
<svg xmlns="http://www.w3.org/2000/svg" viewBox="0 0 50 50" fill="#000000"><path d="M 12 2 C 8.6983746 2 6 4.6983746 6 8 L 6 42.417969 C 6 45.591903 8.832306 48 12 48 L 44 48 L 44 46 L 12 46 C 9.841694 46 8 44.378035 8 42.417969 C 8 40.457903 9.8001368 39 12 39 L 44 39 L 44 2 L 12 2 z M 12 4 L 42 4 L 42 37 L 12 37 C 10.506931 37 9.0923623 37.537598 8 38.417969 L 8 8 C 8 5.7796254 9.7796254 4 12 4 z M 25 11 C 25 11 24.368604 11.960063 23.814453 13.148438 C 23.312493 13.013644 22.72249 12.969857 22.080078 13.089844 C 21.338713 13.228313 20.536011 13.577072 19.742188 14.226562 C 18.770463 15.02161 17.021484 15.001953 17.021484 15.001953 L 17.017578 15.050781 L 17 15.013672 L 12 25.013672 L 12 25.25 C 12 27.897533 14.284285 30 17 30 C 19.715715 30 22 27.897533 22 25.25 L 22 25.013672 L 17.966797 16.947266 C 18.807756 16.882016 19.913576 16.668722 21.007812 15.773438 C 21.996796 14.964269 22.632672 14.9207 23.132812 15.037109 C 23.055395 15.370902 23 15.698032 23 16 C 23 17.105 23.895 18 25 18 C 26.105 18 27 17.105 27 16 C 27 15.698032 26.944605 15.370902 26.867188 15.037109 C 27.367328 14.9207 28.003204 14.964269 28.992188 15.773438 C 30.086423 16.668722 31.192244 16.88202 32.033203 16.947266 L 28 25.013672 L 28 25.25 C 28 27.897533 30.284285 30 33 30 C 35.715715 30 38 27.897533 38 25.25 L 38 25.013672 L 33 15.013672 L 32.982422 15.050781 L 32.978516 15.001953 C 32.978516 15.001953 31.229538 15.021613 30.257812 14.226562 C 28.776117 13.014271 27.266819 12.858152 26.185547 13.148438 C 25.631396 11.960063 25 11 25 11 z M 17 19.486328 L 19.257812 24 L 14.742188 24 L 17 19.486328 z M 33 19.486328 L 35.257812 24 L 30.742188 24 L 33 19.486328 z M 14.333984 26 L 19.666016 26 C 19.287592 27.099465 18.37244 28 17 28 C 15.62756 28 14.712408 27.099465 14.333984 26 z M 30.333984 26 L 35.666016 26 C 35.287592 27.099465 34.37244 28 33 28 C 31.62756 28 30.712408 27.099465 30.333984 26 z" fill="#000000"/></svg>
